# xmcd
# 
# Track frame offsets:
#     150
#     10604
#     22377
#     35300
#     47201
#     58667
#     74645
#     86636
#     100868
#     113241
#     126936
#     138219
#     149262
#     161531
#     173205
#     184619
# 
# Disc length: 2616
# 
# Revision: 1
# Processed by: cddbd v1.5.2PL0 Copyright (c) Steve Scherf et al.
# Submitted via: fre:ac v1.0.17
# 
DISCID=e00a3610
DTITLE=John Lee Hooker - Don't Turn Me From Your Door
DYEAR=1992
DGENRE=Blues
TTITLE0=Stuttering Blues
TTITLE1=Pouring Down Rain
TTITLE2=You Lost A Good Man
TTITLE3=Love My Baby
TTITLE4=Misbelieving Baby
TTITLE5=Drifting Blues
TTITLE6=Wobbling Baby
TTITLE7=Goin' South
TTITLE8=Don't Turn Me From Your Door
TTITLE9=My Baby Don't Love Me
TTITLE10=I Ain't Got Nobody
TTITLE11=Real Real Gone
TTITLE12=Guitar Lovin' Man
TTITLE13=Talk About Your Baby
TTITLE14=Blue Monday
TTITLE15=My Baby Put Me Down
EXTD=
EXTT0=
EXTT1=
EXTT2=
EXTT3=
EXTT4=
EXTT5=
EXTT6=
EXTT7=
EXTT8=
EXTT9=
EXTT10=
EXTT11=
EXTT12=
EXTT13=
EXTT14=
EXTT15=
PLAYORDER=
